<?xml version="1.0" encoding="UTF-8"?>
<svg id="Layer_1" data-name="Layer 1" xmlns="http://www.w3.org/2000/svg" viewBox="0 0 1804.95 356.59">
  <defs>
    <style>
      .cls-1 {
        fill: #1b1b1b;
      }

      .cls-2 {
        fill: #231f20;
      }

      .cls-3 {
        fill: #f36e21;
      }

      .cls-4 {
        fill: #fff;
      }
    </style>
  </defs>
  <rect class="cls-4" x=".03" y="34.43" width="400.01" height="261.94"/>
  <g>
    <path class="cls-3" d="M166.33,128.19c5.45-.74,9.98,2.42,10.72,7.89v114.08c.55,9.59,7.39,17.18,16.91,18.58,11.25-.19,23.66,1.07,34.82.25,2.4-.18,4.94-1.04,6.83-2.53l107.91-107.86c21.4-18.75,54.81-4.88,56.52,23.62v116.27c-.66,13.95-11.63,25.53-25.59,26.67H25.59c-13.45-1.3-23.94-11.73-25.36-25.16-.44-4.17-.67-8.35,3.16-10.99l158.95-158.93c1.07-.9,2.58-1.71,3.98-1.9Z"/>
    <path class="cls-3" d="M26.34,8.25l346.78-.06c12.62.58,23.24,9.28,26.15,21.55.83,3.5,1.27,6.27-1.2,9.26l-159.37,159.25c-6.04,5.56-15.33,1.45-15.58-6.65-.29-36.64.28-73.33.24-109.94,0-9-7.38-16.75-16.28-17.5-12.57-1.06-26.48.74-39.2-.04-2.66.31-5.22,1.02-7.36,2.66-34.93,34.21-69.27,69.1-103.96,103.59C35.48,189.15,2.73,175.94.03,148.27V33.55C1.27,19.87,12.6,8.95,26.34,8.25Z"/>
  </g>
  <g>
    <path class="cls-1" d="M512.29,281.95c-2.21,0-3.54-.33-3.98-1-.45-.66-.66-1.99-.66-3.98V54.07c0-2.87,1.1-4.31,3.32-4.31h46.44c1.77,0,2.93.28,3.48.83.55.55.83,1.72.83,3.48v96.2l70.99-98.19c.44-.66.88-1.21,1.33-1.66s1.21-.66,2.32-.66h51.08c3.09,0,3.87,1.11,2.32,3.32l-77.62,112.12c-.45.45-.33,1.11.33,1.99l78.62,108.8c2.87,3.98,1.88,5.97-2.99,5.97h-47.77c-2.65,0-4.64-.5-5.97-1.49s-2.54-2.37-3.65-4.15l-69-94.87v95.2c0,2.44-.28,3.93-.83,4.48-.55.55-1.72.83-3.48.83h-45.11Z"/>
    <path class="cls-1" d="M724.25,52.08c0-1.1.33-1.99,1-2.65.66-.66,1.99-.11,3.98,1.66l128.7,119.42V53.07c0-1.1.11-1.93.33-2.49.22-.55.88-.83,1.99-.83h45.77c1.77,0,2.82.17,3.15.5.33.33.5,1.38.5,3.15v227.22c0,1.77-.45,2.6-1.33,2.49-.89-.11-1.66-.5-2.32-1.16l-130.03-118.09v113.78c0,1.77-.22,2.93-.66,3.48-.45.55-1.55.83-3.32.83h-44.12c-1.77,0-2.82-.27-3.15-.83-.33-.55-.5-1.71-.5-3.48V52.08Z"/>
    <path class="cls-1" d="M957.77,54.4c0-2.43.44-3.81,1.33-4.15.88-.33,2.1-.5,3.65-.5h123.06c2.87,0,4.64.33,5.31,1s1,1.88,1,3.65v40.8c0,1.99-.33,3.27-1,3.81-.66.55-2.21.83-4.64.83h-73.97c-.45,0-.66.11-.66.33v37.81c0,.66.22,1,.66,1h74.97c3.09,0,4.64,2.32,4.64,6.97v33.5c0,3.98-.33,6.58-1,7.79-.66,1.22-1.88,1.82-3.65,1.82h-74.3c-.89,0-1.33.33-1.33,1v41.13c0,.45.33.66.99.66h74.97c2.21,0,3.48.83,3.81,2.49.33,1.66.5,4.04.5,7.13v32.84c0,1.99-.45,3.76-1.33,5.31-.88,1.55-2.65,2.32-5.31,2.32h-122.07c-1.99,0-3.43-.22-4.31-.66-.89-.44-1.33-1.99-1.33-4.64V54.4Z"/>
    <path class="cls-1" d="M1124.29,164.86c0-16.59,3.2-32.23,9.62-46.94,6.41-14.7,15.14-27.53,26.21-38.48,11.06-10.95,24.1-19.57,39.14-25.87,15.04-6.3,31.07-9.45,48.1-9.45s33.01,3.15,47.93,9.45c14.93,6.3,27.97,14.93,39.14,25.87,11.16,10.95,19.96,23.77,26.37,38.48,6.41,14.71,9.62,30.35,9.62,46.94s-3.21,32.23-9.62,46.94c-6.42,14.71-15.21,27.48-26.37,38.31-11.17,10.84-24.21,19.4-39.14,25.71-14.93,6.3-30.91,9.45-47.93,9.45s-33.06-3.15-48.1-9.45c-15.04-6.3-28.09-14.87-39.14-25.71-11.06-10.83-19.79-23.6-26.21-38.31-6.42-14.7-9.62-30.35-9.62-46.94ZM1177.03,164.86c0,9.73,1.82,18.86,5.47,27.37,3.65,8.52,8.68,15.98,15.09,22.39,6.41,6.42,13.88,11.44,22.39,15.09,8.51,3.65,17.63,5.47,27.37,5.47s18.79-1.82,27.2-5.47c8.4-3.65,15.76-8.68,22.06-15.09,6.3-6.41,11.28-13.88,14.93-22.39,3.65-8.51,5.47-17.63,5.47-27.37s-1.82-18.85-5.47-27.37c-3.65-8.51-8.62-15.97-14.93-22.39-6.3-6.41-13.66-11.44-22.06-15.09-8.41-3.65-17.47-5.47-27.2-5.47s-18.86,1.82-27.37,5.47c-8.52,3.65-15.98,8.68-22.39,15.09-6.42,6.42-11.45,13.88-15.09,22.39-3.65,8.52-5.47,17.64-5.47,27.37Z"/>
    <path class="cls-1" d="M1448.37,163.53c1.33-2.21,1.88-3.98,1.66-5.31-.22-1.33-.89-2.99-1.99-4.98l-66.01-99.18c-.66-1.1-.89-2.1-.66-2.99.22-.88,1.33-1.33,3.32-1.33h47.1c1.77,0,3.37.17,4.81.5,1.44.33,2.71,1.38,3.81,3.15l34.5,52.08c1.1,1.99,2.49,2.65,4.15,1.99,1.66-.66,3.26-2.32,4.81-4.98l32.51-48.76c1.1-1.77,2.16-2.87,3.15-3.32.99-.44,2.82-.66,5.47-.66h46.44c1.77,0,2.82.5,3.15,1.49s.05,2.05-.83,3.15l-65.02,97.85c-1.11,1.77-1.82,3.48-2.16,5.14-.33,1.66.05,3.37,1.16,5.14l65.68,113.44c1.1,1.55,1.54,2.93,1.33,4.15-.22,1.22-1.11,1.82-2.65,1.82h-45.44c-3.54,0-5.97-.22-7.3-.66-1.33-.44-2.65-1.88-3.98-4.31l-33.84-65.68c-1.55-2.43-2.82-3.43-3.81-2.99-.99.45-1.94,1.33-2.82,2.65l-32.84,64.02c-1.55,2.65-3.15,4.48-4.81,5.47-1.66,1-4.04,1.49-7.13,1.49h-44.45c-2.65,0-3.98-.66-3.98-1.99s.44-2.54,1.33-3.65l65.35-112.78Z"/>
    <path class="cls-1" d="M1681.56,281.95c-2.21,0-3.65-.22-4.31-.66-.66-.44-1-1.88-1-4.31V103.82c0-1.54-.11-2.6-.33-3.15-.22-.55-1.22-.83-2.99-.83h-64.35c-1.77,0-2.93-.22-3.48-.66-.55-.44-.83-1.54-.83-3.32v-41.46c0-1.77.17-2.99.5-3.65s1.49-1,3.48-1h192.39c1.77,0,2.93.17,3.48.5.55.33.83,1.38.83,3.15v42.79c0,1.77-.17,2.82-.5,3.15-.33.33-1.38.5-3.15.5h-65.35c-1.55,0-2.44.28-2.65.83-.22.55-.33,1.49-.33,2.82v172.82c0,1.77-.28,3.15-.83,4.15-.55,1-1.72,1.49-3.48,1.49h-47.1Z"/>
  </g>
  <g>
    <path class="cls-2" d="M926.39,180.14h.1v.72h.35v.09h-.45v-.81Z"/>
    <path class="cls-2" d="M927.46,180.66c0,.22-.15.31-.29.31-.16,0-.28-.12-.28-.3,0-.2.13-.31.29-.31s.28.12.28.3ZM927,180.66c0,.13.07.22.18.22s.18-.1.18-.23c0-.1-.05-.22-.17-.22s-.18.12-.18.23Z"/>
    <path class="cls-2" d="M927.59,180.55c0-.07,0-.13,0-.18h.09v.11h0c.03-.08.09-.13.16-.13.01,0,.02,0,.03,0v.1s-.02,0-.04,0c-.07,0-.13.06-.14.14,0,.01,0,.03,0,.05v.31h-.1v-.4Z"/>
    <path class="cls-2" d="M928.03,180.68c0,.14.09.2.2.2.08,0,.12-.01.16-.03l.02.08s-.1.04-.19.04c-.18,0-.29-.12-.29-.29s.1-.31.27-.31c.19,0,.24.17.24.27,0,.02,0,.04,0,.05h-.41ZM928.34,180.61c0-.07-.03-.17-.15-.17-.11,0-.15.1-.16.17h.31Z"/>
    <path class="cls-2" d="M928.58,180.53c0-.06,0-.11,0-.16h.09v.09h0c.03-.06.09-.11.18-.11.08,0,.14.05.17.12h0s.04-.06.07-.08c.04-.03.07-.04.13-.04.08,0,.19.05.19.25v.34h-.1v-.33c0-.11-.04-.18-.13-.18-.06,0-.11.04-.12.1,0,.01,0,.03,0,.05v.36h-.1v-.35c0-.09-.04-.16-.12-.16-.07,0-.11.05-.13.11,0,.02,0,.03,0,.05v.35h-.1v-.43Z"/>
    <path class="cls-2" d="M929.95,180.21s-.03.07-.07.07c-.04,0-.06-.03-.06-.07s.03-.07.07-.07c.04,0,.07.03.07.07ZM929.83,180.95v-.58h.11v.58h-.11Z"/>
    <path class="cls-2" d="M930.11,180.56c0-.07,0-.13,0-.19h.1v.1h0c.04-.07.11-.11.21-.11.14,0,.25.12.25.3,0,.21-.13.31-.26.31-.08,0-.14-.03-.18-.09h0v.32h-.1v-.63ZM930.22,180.72s0,.03,0,.04c.02.07.08.12.16.12.11,0,.18-.09.18-.23,0-.12-.06-.22-.17-.22-.07,0-.14.05-.16.13,0,.01,0,.03,0,.04v.1Z"/>
    <path class="cls-2" d="M930.78,180.85s.09.04.14.04c.08,0,.11-.04.11-.09s-.03-.08-.11-.11c-.1-.04-.15-.1-.15-.17,0-.09.08-.17.2-.17.06,0,.11.02.14.04l-.03.08s-.06-.03-.12-.03c-.06,0-.1.04-.1.08,0,.05.04.07.11.1.1.04.15.09.15.18,0,.1-.08.17-.22.17-.06,0-.12-.02-.16-.04l.03-.08Z"/>
    <path class="cls-2" d="M931.76,180.79c0,.06,0,.11,0,.16h-.09v-.1h0s-.09.11-.19.11c-.09,0-.2-.05-.2-.26v-.34h.11v.32c0,.11.03.19.13.19.07,0,.12-.05.14-.1,0-.02,0-.03,0-.05v-.36h.11v.42Z"/>
    <path class="cls-2" d="M931.93,180.53c0-.06,0-.11,0-.16h.09v.09h0c.03-.06.09-.11.18-.11.08,0,.14.05.17.12h0s.04-.06.07-.08c.04-.03.07-.04.13-.04.08,0,.19.05.19.25v.34h-.1v-.33c0-.11-.04-.18-.13-.18-.06,0-.11.04-.12.1,0,.01,0,.03,0,.05v.36h-.1v-.35c0-.09-.04-.16-.12-.16-.07,0-.11.05-.13.11,0,.02,0,.03,0,.05v.35h-.1v-.43Z"/>
  </g>
</svg>