<?xml version="1.0" encoding="UTF-8"?>
<svg id="Layer_1" data-name="Layer 1" xmlns="http://www.w3.org/2000/svg" viewBox="0 0 4000.37 3169.81">
  <defs>
    <style>
      .cls-1 {
        fill: #000;
      }

      .cls-2 {
        fill: #ff6d02;
      }
    </style>
  </defs>
  <rect class="cls-1" x=".29" y="262.43" width="4000.08" height="2619.37"/>
  <g>
    <path class="cls-2" d="M1663.11,1200.08c54.47-7.37,99.79,24.22,107.18,78.93l-.07,1140.83c5.55,95.93,73.96,171.85,169.11,185.77,112.5-1.93,236.59,10.75,348.2,2.52,24-1.77,49.35-10.37,68.32-25.3l1078.99-1078.59c214.01-187.53,548.03-48.84,565.17,236.17v1162.71c-6.58,139.47-116.28,255.29-255.84,266.68H255.91c-134.5-13.03-239.36-117.25-253.54-251.56-4.41-41.75-6.73-83.53,31.6-109.86l1589.34-1589.33c10.74-9.02,25.82-17.09,39.81-18.98Z"/>
    <path class="cls-2" d="M265.35.62l3465.64-.62c126.09,5.85,232.25,92.81,261.33,215.48,8.29,35,12.74,62.72-11.95,92.6l-1592.71,1592.5c-60.32,55.55-153.22,14.54-155.71-66.48-2.93-366.36,2.75-733.33,2.35-1099.37-.1-90.04-73.74-167.49-162.69-174.97-125.64-10.57-264.69,7.4-391.72-.36-26.57,3.06-52.14,10.24-73.54,26.61-349.06,342.15-692.28,691.03-1038.93,1035.92C356.7,1809.62,29.32,1677.56,2.36,1400.87V253.63C14.73,116.8,127.98,7.66,265.35.62Z"/>
  </g>
</svg>